<svg width="56" height="37" viewBox="0 0 56 37" fill="none" xmlns="http://www.w3.org/2000/svg">
<path d="M22.2559 15.3488H27.628V12.279H24.5582V10.7441H21.4885V12.357C20.5572 12.5476 19.7299 13.0771 19.1668 13.8429C18.6036 14.6087 18.3448 15.5562 18.4403 16.5019C18.5358 17.4477 18.979 18.3243 19.6839 18.9619C20.3889 19.5996 21.3054 19.9529 22.2559 19.9534H23.7908C23.9943 19.9534 24.1895 20.0343 24.3335 20.1782C24.4774 20.3221 24.5582 20.5173 24.5582 20.7209C24.5582 20.9244 24.4774 21.1196 24.3335 21.2635C24.1895 21.4075 23.9943 21.4883 23.7908 21.4883H18.4187V24.5581H21.4885V26.093H24.5582V24.4801C25.4895 24.2895 26.3168 23.76 26.8799 22.9942C27.4431 22.2284 27.7019 21.2809 27.6064 20.3352C27.5109 19.3895 27.0677 18.5129 26.3628 17.8752C25.6578 17.2375 24.7413 16.8842 23.7908 16.8837H22.2559C22.0524 16.8837 21.8572 16.8028 21.7132 16.6589C21.5693 16.515 21.4885 16.3198 21.4885 16.1162C21.4885 15.9127 21.5693 15.7175 21.7132 15.5736C21.8572 15.4296 22.0524 15.3488 22.2559 15.3488Z" fill="white"/>
<path d="M41.4419 13.814H38.3414C38.2972 12.6014 38.0046 11.4108 37.4819 10.3159C36.9592 9.22092 36.2174 8.24484 35.3023 7.44802V1.53488C35.3023 1.24984 35.2229 0.970423 35.0731 0.727948C34.9232 0.485474 34.7088 0.289519 34.4539 0.162043C34.1989 0.034566 33.9135 -0.019396 33.6296 0.00620273C33.3457 0.0318015 33.0745 0.135949 32.8465 0.306977L27.116 4.60465H19.9535C11.497 4.60465 5.42827 9.57952 4.6837 16.8837H4.60465C4.19769 16.8834 3.8075 16.7215 3.51973 16.4338C3.23196 16.146 3.07013 15.7558 3.06977 15.3488V12.2791H0V15.3488C0.00134069 16.5697 0.486903 17.7401 1.35015 18.6033C2.2134 19.4666 3.38383 19.9521 4.60465 19.9535H4.71209C4.9348 21.966 5.58896 23.9068 6.62994 25.6436C7.67093 27.3803 9.07425 28.872 10.7442 30.0171V35.3023C10.7442 35.7094 10.9059 36.0998 11.1937 36.3877C11.4816 36.6755 11.872 36.8372 12.2791 36.8372H18.4186C18.8257 36.8372 19.2161 36.6755 19.5039 36.3877C19.7918 36.0998 19.9535 35.7094 19.9535 35.3023V32.2326H24.5581V35.3023C24.5581 35.7094 24.7198 36.0998 25.0077 36.3877C25.2955 36.6755 25.6859 36.8372 26.093 36.8372H32.2326C32.6396 36.8372 33.03 36.6755 33.3179 36.3877C33.6057 36.0998 33.7674 35.7094 33.7674 35.3023V30.1408C34.8762 29.6152 35.8456 28.8359 36.5972 27.866C37.3488 26.8962 37.8616 25.763 38.094 24.5581H41.4419C41.8489 24.5581 42.2393 24.3964 42.5272 24.1086C42.815 23.8207 42.9767 23.4303 42.9767 23.0233V15.3488C42.9767 14.9418 42.815 14.5514 42.5272 14.2635C42.2393 13.9757 41.8489 13.814 41.4419 13.814ZM39.907 21.4884H35.4927C35.0242 25.7138 34.2287 26.8381 30.6977 28.112V33.7674H27.6279V29.1628H16.8837V33.7674H13.814V28.2079C11.9658 27.3287 10.4067 25.9408 9.31925 24.2069C8.23184 22.4731 7.66127 20.4652 7.67442 18.4186C7.67442 10.9968 13.8417 7.67442 19.9535 7.67442H28.1398L32.2326 4.60465V8.8661C35.9442 11.7199 35.1682 13.7562 35.3304 16.8837H39.907V21.4884Z" fill="white"/>
<path d="M36.847 35.4735C36.8513 35.5118 36.8569 35.55 36.864 35.5875C36.8841 35.6939 36.9153 35.7973 36.9571 35.897C36.9871 35.9682 37.0225 36.0379 37.063 36.1038C37.1258 36.2065 37.2007 36.3017 37.2869 36.3879C37.5749 36.6757 37.9651 36.8375 38.3723 36.8375H44.5118C44.5776 36.8375 44.6428 36.833 44.7072 36.8248C44.7762 36.8166 44.844 36.8031 44.9105 36.7851C45.0213 36.7551 45.1282 36.7131 45.2296 36.6599C45.2883 36.6292 45.3448 36.594 45.3992 36.555C45.4693 36.5055 45.5356 36.4493 45.5972 36.3879C45.885 36.1001 46.0467 35.7096 46.0467 35.3027V30.1412C47.1555 29.6158 48.1248 28.8364 48.8765 27.8666C49.6282 26.8968 50.1408 25.7636 50.3733 24.5585H53.7211C54.1283 24.5585 54.5185 24.3966 54.8065 24.1088C55.0943 23.821 55.256 23.4305 55.256 23.0236V15.3492C55.256 15.2465 55.2457 15.1446 55.2257 15.0449C55.2165 14.9999 55.2052 14.955 55.1921 14.9115C55.1773 14.862 55.1601 14.8133 55.1404 14.7653C55.064 14.5795 54.9512 14.4086 54.8065 14.264C54.6338 14.0916 54.4241 13.9642 54.1961 13.8892C54.0441 13.8398 53.8839 13.8143 53.7211 13.8143H50.6206C50.5764 12.6017 50.2839 11.4115 49.7612 10.3166C49.2384 9.22088 48.4967 8.24509 47.5816 7.44842V1.53522C47.5816 1.25043 47.5021 0.970881 47.3524 0.728058C47.2983 0.641121 47.2359 0.559431 47.1662 0.485235C47.1019 0.416285 47.0315 0.35408 46.9558 0.29862C46.8859 0.246908 46.8115 0.201191 46.7332 0.16222C46.5743 0.0827773 46.4036 0.0318144 46.2288 0.0108296C46.1231 -0.00191111 46.016 -0.00341002 45.9088 0.00633289C45.6249 0.0318144 45.3538 0.135989 45.1258 0.307614L39.3953 4.60499H36.8374V7.67476H40.419L44.5118 4.60499V8.86639C47.5816 11.2264 47.5816 13.0274 47.5816 15.3492C47.5816 15.8348 47.5816 16.343 47.6097 16.8841H52.1862V21.4887H47.772C47.3035 25.7141 46.508 26.8383 42.9769 28.1124V33.7678H39.9072V29.1631H36.8374V35.3027C36.8374 35.3604 36.8406 35.4173 36.847 35.4735Z" fill="white"/>
</svg>
