<svg width="43" height="37" viewBox="0 0 43 37" fill="none" xmlns="http://www.w3.org/2000/svg">
<path d="M22.2557 15.3488H27.6278V12.279H24.558V10.7441H21.4882V12.357C20.557 12.5476 19.7297 13.0771 19.1665 13.8429C18.6034 14.6087 18.3445 15.5562 18.4401 16.5019C18.5356 17.4477 18.9788 18.3243 19.6837 18.9619C20.3886 19.5996 21.3051 19.9529 22.2557 19.9534H23.7906C23.9941 19.9534 24.1893 20.0343 24.3332 20.1782C24.4771 20.3221 24.558 20.5173 24.558 20.7209C24.558 20.9244 24.4771 21.1196 24.3332 21.2635C24.1893 21.4075 23.9941 21.4883 23.7906 21.4883H18.4185V24.5581H21.4882V26.093H24.558V24.4801C25.4892 24.2895 26.3165 23.76 26.8797 22.9942C27.4428 22.2284 27.7017 21.2809 27.6062 20.3352C27.5106 19.3895 27.0674 18.5129 26.3625 17.8752C25.6576 17.2375 24.7411 16.8842 23.7906 16.8837H22.2557C22.0521 16.8837 21.8569 16.8028 21.713 16.6589C21.5691 16.515 21.4882 16.3198 21.4882 16.1162C21.4882 15.9127 21.5691 15.7175 21.713 15.5736C21.8569 15.4296 22.0521 15.3488 22.2557 15.3488Z" fill="white"/>
<path d="M41.4419 13.814H38.3414C38.2972 12.6014 38.0046 11.4108 37.4819 10.3159C36.9592 9.22092 36.2174 8.24484 35.3023 7.44802V1.53488C35.3023 1.24984 35.2229 0.970423 35.0731 0.727948C34.9232 0.485474 34.7088 0.289519 34.4539 0.162043C34.1989 0.034566 33.9135 -0.019396 33.6296 0.00620273C33.3457 0.0318015 33.0745 0.135949 32.8465 0.306977L27.116 4.60465H19.9535C11.497 4.60465 5.42827 9.57952 4.6837 16.8837H4.60465C4.19769 16.8834 3.8075 16.7215 3.51973 16.4338C3.23196 16.146 3.07013 15.7558 3.06977 15.3488V12.2791H0V15.3488C0.00134069 16.5697 0.486903 17.7401 1.35015 18.6033C2.2134 19.4666 3.38383 19.9521 4.60465 19.9535H4.71209C4.9348 21.966 5.58896 23.9068 6.62994 25.6436C7.67093 27.3803 9.07425 28.872 10.7442 30.0171V35.3023C10.7442 35.7094 10.9059 36.0998 11.1937 36.3877C11.4816 36.6755 11.872 36.8372 12.2791 36.8372H18.4186C18.8257 36.8372 19.2161 36.6755 19.5039 36.3877C19.7918 36.0998 19.9535 35.7094 19.9535 35.3023V32.2326H24.5581V35.3023C24.5581 35.7094 24.7198 36.0998 25.0077 36.3877C25.2955 36.6755 25.6859 36.8372 26.093 36.8372H32.2326C32.6396 36.8372 33.03 36.6755 33.3179 36.3877C33.6057 36.0998 33.7674 35.7094 33.7674 35.3023V30.1408C34.8762 29.6152 35.8456 28.8359 36.5972 27.866C37.3488 26.8962 37.8616 25.763 38.094 24.5581H41.4419C41.8489 24.5581 42.2393 24.3964 42.5272 24.1086C42.815 23.8207 42.9767 23.4303 42.9767 23.0233V15.3488C42.9767 14.9418 42.815 14.5514 42.5272 14.2635C42.2393 13.9757 41.8489 13.814 41.4419 13.814ZM39.907 21.4884H35.4927C35.0242 25.7138 34.2287 26.8381 30.6977 28.112V33.7674H27.6279V29.1628H16.8837V33.7674H13.814V28.2079C11.9658 27.3287 10.4067 25.9408 9.31925 24.2069C8.23184 22.4731 7.66127 20.4652 7.67442 18.4186C7.67442 10.9968 13.8417 7.67442 19.9535 7.67442H28.1398L32.2326 4.60465V8.8661C35.9442 11.7199 35.1682 13.7562 35.3304 16.8837H39.907V21.4884Z" fill="white"/>
</svg>
