<svg width="59" height="59" viewBox="0 0 59 59" fill="none" xmlns="http://www.w3.org/2000/svg">
<circle cx="29.5" cy="29.5" r="29.5" fill="white"/>
<path d="M24.875 22.5624H18.8394C20.3348 20.2641 22.5329 18.5107 25.106 17.5634C27.6792 16.6161 30.4895 16.5258 33.1182 17.3058C35.7468 18.0858 38.053 19.6944 39.693 21.8919C41.333 24.0893 42.2189 26.7579 42.2188 29.4999H44.5312C44.5344 26.4074 43.5837 23.3893 41.8088 20.857C40.0339 18.3247 37.5211 16.4014 34.6131 15.3495C31.7052 14.2976 28.5435 14.1682 25.5592 14.9789C22.575 15.7896 19.9135 17.5011 17.9375 19.8799V15.6249H15.625V24.8749H24.875V22.5624Z" fill="#0075EB"/>
<path d="M34.125 36.4375H40.1606C38.6652 38.7357 36.4671 40.4892 33.894 41.4365C31.3208 42.3837 28.5105 42.4741 25.8818 41.6941C23.2532 40.914 20.947 39.3054 19.307 37.108C17.667 34.9105 16.7811 32.2419 16.7813 29.5H14.4688C14.4656 32.5924 15.4163 35.6105 17.1912 38.1428C18.9661 40.6752 21.4789 42.5984 24.3869 43.6503C27.2949 44.7023 30.4565 44.8317 33.4408 44.021C36.425 43.2102 39.0866 41.4988 41.0625 39.12V43.375H43.375V34.125H34.125V36.4375Z" fill="#0075EB"/>
</svg>
