<svg width="32" height="32" viewBox="0 0 32 32" fill="none" xmlns="http://www.w3.org/2000/svg">
<path fill-rule="evenodd" clip-rule="evenodd" d="M9 30H23C24.8559 29.9979 26.6352 29.2598 27.9475 27.9475C29.2598 26.6352 29.9979 24.8559 30 23V16C29.9988 14.9395 29.577 13.9228 28.8271 13.1729C28.0772 12.423 27.0605 12.0012 26 12H18V6C17.9991 5.20462 17.6828 4.44206 17.1204 3.87964C16.5579 3.31722 15.7954 3.00087 15 3H14.8672C14.3863 3.002 13.9221 3.17639 13.5589 3.49149C13.1956 3.8066 12.9574 4.24153 12.8875 4.7173L12.0422 10.6338L9 15.1973V30ZM2 16H7V30H2V16Z" fill="white"/>
</svg>
